<svg xmlns="http://www.w3.org/2000/svg" viewBox="0 0 192 192" role="img" aria-labelledby="title desc">
  <title id="title">부산 미리한끼 앱 아이콘</title>
  <desc id="desc">부산 바다와 미리한끼 로고를 담은 앱 아이콘</desc>
  <defs>
    <linearGradient id="bg" x1="0" y1="0" x2="1" y2="1">
      <stop offset="0" stop-color="#fffaf1"/>
      <stop offset="1" stop-color="#f4e5ce"/>
    </linearGradient>
    <linearGradient id="sea" x1="0" y1="0" x2="1" y2="1">
      <stop offset="0" stop-color="#8ed0f1"/>
      <stop offset="1" stop-color="#2f8fc5"/>
    </linearGradient>
    <clipPath id="clip">
      <rect x="8" y="8" width="176" height="176" rx="42"/>
    </clipPath>
  </defs>
  <rect width="192" height="192" rx="44" fill="url(#bg)"/>
  <g clip-path="url(#clip)">
    <rect x="8" y="8" width="176" height="176" fill="url(#bg)"/>
    <path d="M17 129c34-19 60-17 87-2 31 17 54 10 88 21v44H0v-48c7-7 12-11 17-15z" fill="url(#sea)"/>
    <path d="M0 161c32-10 58 0 83 12 33 15 64 10 109 2v17H0z" fill="#ffd79b"/>
    <path d="M14 158c22 1 36 9 54 22" fill="none" stroke="#fff" stroke-width="5" stroke-linecap="round"/>
    <path d="M105 136h61M113 136v-17M157 136v-17M113 119c16 15 29 19 44 0M101 144h77" fill="none" stroke="#fff" stroke-width="3" stroke-linecap="round"/>
    <path d="M122 102h40v32h-40zM164 92h20v42h-20z" fill="#68acd5" opacity=".85"/>
    <path d="M44 54c4-7 13-7 17 0M72 57c4-6 12-6 16 0" fill="none" stroke="#a9c6d8" stroke-width="3" stroke-linecap="round"/>
    <g transform="translate(52 27) scale(.55)">
      <path d="M66 72c0-42 34-76 76-76 42 0 76 34 76 76" fill="#123b68"/>
      <path d="M54 72h176" fill="none" stroke="#123b68" stroke-width="12" stroke-linecap="round"/>
      <path d="M112 14c0-8 7-15 15-15s15 7 15 15" fill="#123b68"/>
      <path d="M95 34c22-17 47-22 74-11" fill="none" stroke="#fff7ef" stroke-width="8" stroke-linecap="round"/>
      <path d="M230 41c-26 0-47 21-47 47 0 38 47 77 47 77s47-39 47-77c0-26-21-47-47-47z" fill="#ef6952"/>
      <circle cx="230" cy="88" r="17" fill="#fff7ef"/>
    </g>
    <text x="96" y="100" text-anchor="middle" font-family="Apple SD Gothic Neo, Pretendard, Arial, sans-serif" font-size="31" font-weight="900" fill="#123b68">부산</text>
    <text x="96" y="129" text-anchor="middle" font-family="Apple SD Gothic Neo, Pretendard, Arial, sans-serif" font-size="25" font-weight="900">
      <tspan fill="#ef6952">미리</tspan><tspan fill="#123b68">한끼</tspan>
    </text>
  </g>
</svg>
