<svg xmlns="http://www.w3.org/2000/svg" viewBox="0 0 512 512" role="img" aria-labelledby="title desc">
  <title id="title">부산 미리한끼 마스크 아이콘</title>
  <desc id="desc">휴대폰 홈 화면 마스크 영역에 맞춘 부산 미리한끼 아이콘</desc>
  <rect width="512" height="512" fill="#fff7ea"/>
  <circle cx="256" cy="256" r="210" fill="#fffaf1"/>
  <path d="M69 348c84-44 142-34 203-4 59 28 112 18 171 0v102H69z" fill="#79c2e6"/>
  <path d="M69 407c66-16 103 8 153 26 59 22 116 9 221-4v83H69z" fill="#ffd89c"/>
  <path d="M140 380h232M162 380v-48M350 380v-48M162 332c45 42 143 42 188 0M122 400h268" fill="none" stroke="#ffffff" stroke-width="10" stroke-linecap="round" stroke-linejoin="round"/>
  <path d="M172 145c0-43 35-78 78-78s78 35 78 78" fill="#123b68"/>
  <path d="M158 145h184" fill="none" stroke="#123b68" stroke-width="14" stroke-linecap="round"/>
  <path d="M238 83c0-9 8-17 17-17s17 8 17 17" fill="#123b68"/>
  <path d="M219 106c23-18 50-23 79-11" fill="none" stroke="#fff7ef" stroke-width="9" stroke-linecap="round"/>
  <path d="M346 111c-27 0-49 22-49 49 0 40 49 81 49 81s49-41 49-81c0-27-22-49-49-49z" fill="#ef6952"/>
  <circle cx="346" cy="160" r="18" fill="#fff7ef"/>
  <text x="256" y="255" text-anchor="middle" font-family="Apple SD Gothic Neo, Pretendard, Arial, sans-serif" font-size="78" font-weight="900" fill="#123b68">부산</text>
  <text x="256" y="333" text-anchor="middle" font-family="Apple SD Gothic Neo, Pretendard, Arial, sans-serif" font-size="66" font-weight="900">
    <tspan fill="#ef6952">미리</tspan><tspan fill="#123b68">한끼</tspan>
  </text>
</svg>
