<svg xmlns="http://www.w3.org/2000/svg" viewBox="0 0 512 512" role="img" aria-labelledby="title desc">
  <title id="title">부산 미리한끼 앱 아이콘</title>
  <desc id="desc">부산 바다와 광안대교, 미리한끼 로고를 담은 앱 아이콘</desc>
  <defs>
    <linearGradient id="bg" x1="0" y1="0" x2="1" y2="1">
      <stop offset="0" stop-color="#fffaf1"/>
      <stop offset="1" stop-color="#f6ead7"/>
    </linearGradient>
    <linearGradient id="sea" x1="0" y1="0" x2="1" y2="1">
      <stop offset="0" stop-color="#8ed0f1"/>
      <stop offset="1" stop-color="#3f96c8"/>
    </linearGradient>
    <linearGradient id="sand" x1="0" y1="0" x2="1" y2="0">
      <stop offset="0" stop-color="#ffd89c"/>
      <stop offset="1" stop-color="#fff0ca"/>
    </linearGradient>
    <linearGradient id="city" x1="0" y1="0" x2="1" y2="1">
      <stop offset="0" stop-color="#9ed0ed"/>
      <stop offset="1" stop-color="#4d96c7"/>
    </linearGradient>
    <clipPath id="clip">
      <rect x="22" y="22" width="468" height="468" rx="104"/>
    </clipPath>
  </defs>

  <rect width="512" height="512" rx="112" fill="url(#bg)"/>
  <g clip-path="url(#clip)">
    <rect x="22" y="22" width="468" height="468" fill="url(#bg)"/>

    <path d="M88 132c11-16 35-16 46 0 7-8 24-8 31 2h-77z" fill="#fff"/>
    <path d="M356 114c12-19 40-18 51 1 9-8 29-6 36 8h-106z" fill="#fff"/>
    <path d="M73 252c17-30 61-30 78 0 12-12 38-9 49 10H51c5-8 12-10 22-10z" fill="#fff"/>

    <path d="M89 94c10-16 27-16 37 0M51 118c11-14 30-14 41 0M137 118c8-10 23-10 31 0" fill="none" stroke="#a9c6d8" stroke-width="6" stroke-linecap="round"/>

    <path d="M0 332c91-45 151-33 212 0 43 24 78 24 119 5 52-24 106-20 181 10v165H0z" fill="#93c3df"/>
    <path d="M0 352c82-38 153-29 222 2 37 17 68 19 106 2 61-27 115-18 184 11v145H0z" fill="#6baed3" opacity=".72"/>

    <g fill="url(#city)" opacity=".9">
      <rect x="363" y="247" width="28" height="102" rx="6"/>
      <rect x="395" y="221" width="35" height="128" rx="14"/>
      <rect x="434" y="241" width="22" height="108" rx="8"/>
      <rect x="458" y="202" width="30" height="147" rx="14"/>
      <rect x="326" y="285" width="25" height="64" rx="11"/>
    </g>

    <path d="M70 346c42-68 117-73 164 0" fill="#2f754f"/>
    <path d="M-4 367c51-52 124-54 175 0z" fill="#44815d"/>
    <path d="M0 391c53-15 115-3 166 24 56 29 113 38 177 27 71-13 116-3 169 20v50H0z" fill="url(#sea)"/>
    <path d="M0 410c68-20 119 9 172 32 55 25 123 27 184 14 67-14 107-5 156 19v37H0z" fill="#2d8bc0" opacity=".35"/>
    <path d="M0 417c84 4 125 37 171 55 48 19 110 15 178 1 70-15 109-3 163 26v13H0z" fill="url(#sand)"/>
    <path d="M23 430c58 4 88 23 122 44 24 15 52 23 87 22" fill="none" stroke="#fff" stroke-width="10" stroke-linecap="round"/>
    <path d="M276 452c43 1 84-8 116 0M319 479c27 0 51-4 72 0" fill="none" stroke="#d8f0ff" stroke-width="5" stroke-linecap="round" opacity=".8"/>

    <g fill="none" stroke="#ffffff" stroke-linecap="round" stroke-linejoin="round">
      <path d="M163 354h220" stroke-width="7"/>
      <path d="M185 354v-43M359 354v-43" stroke-width="5"/>
      <path d="M185 311c44 44 130 44 174 0" stroke-width="5"/>
      <path d="M185 311c37 28 137 28 174 0" stroke-width="3" opacity=".75"/>
      <path d="M147 371h280" stroke-width="7"/>
      <path d="M154 371c22-16 41-17 63 0M217 371c22-16 41-17 63 0M280 371c22-16 41-17 63 0M343 371c22-16 41-17 63 0" stroke-width="4"/>
    </g>

    <g transform="translate(145 72)">
      <path d="M66 72c0-42 34-76 76-76 42 0 76 34 76 76" fill="#123b68"/>
      <path d="M54 72h176" fill="none" stroke="#123b68" stroke-width="12" stroke-linecap="round"/>
      <path d="M112 14c0-8 7-15 15-15s15 7 15 15" fill="#123b68"/>
      <path d="M95 34c22-17 47-22 74-11" fill="none" stroke="#fff7ef" stroke-width="8" stroke-linecap="round"/>
      <path d="M230 41c-26 0-47 21-47 47 0 38 47 77 47 77s47-39 47-77c0-26-21-47-47-47z" fill="#ef6952"/>
      <circle cx="230" cy="88" r="17" fill="#fff7ef"/>
      <path d="M220 8l-7-30M251 14l17-27M275 42l28-16" stroke="#ef6952" stroke-width="10" stroke-linecap="round"/>
    </g>

    <text x="256" y="215" text-anchor="middle" font-family="Apple SD Gothic Neo, Pretendard, Arial, sans-serif" font-size="76" font-weight="900" fill="#123b68">부산</text>
    <text x="256" y="292" text-anchor="middle" font-family="Apple SD Gothic Neo, Pretendard, Arial, sans-serif" font-size="64" font-weight="900">
      <tspan fill="#ef6952">미리</tspan><tspan fill="#123b68">한끼</tspan>
    </text>
  </g>
</svg>
